<?xml version="1.0" encoding="utf-8"?>
<!-- Generator: Adobe Illustrator 22.1.0, SVG Export Plug-In . SVG Version: 6.00 Build 0)  -->
<svg version="1.1" id="Layer_1" xmlns="http://www.w3.org/2000/svg" xmlns:xlink="http://www.w3.org/1999/xlink" x="0px" y="0px"
	 viewBox="0 0 50 50" style="enable-background:new 0 0 50 50;" xml:space="preserve">
<style type="text/css">
	.st0{fill:#2C770E;stroke:#FFFFFF;stroke-width:2;stroke-miterlimit:10;}
</style>
<path class="st0" d="M10.9,42H40c1.1,0,2.2-0.4,2.9-1.2c0.8-0.8,1.2-1.8,1.2-2.9V8.6c0-1.1-0.4-2.2-1.2-2.9
	c-0.8-0.8-1.8-1.2-2.9-1.2H10.9c-1.1,0-2.2,0.4-2.9,1.2C7.1,6.5,6.7,7.5,6.7,8.6v29.2c0,1.1,0.4,2.2,1.2,2.9
	C8.7,41.5,9.8,42,10.9,42z M15,21.1h8.3v-8.3h4.2v8.3h8.3v4.2h-8.3v8.3h-4.2v-8.3H15V21.1z"/>
</svg>
